<?xml version="1.0" encoding="UTF-8" standalone="no"?>
<svg width="529px" height="116px" viewBox="0 0 529 116" version="1.1" xmlns="http://www.w3.org/2000/svg" xmlns:xlink="http://www.w3.org/1999/xlink" xmlns:sketch="http://www.bohemiancoding.com/sketch/ns">
    <!-- Generator: Sketch 3.5.2 (25235) - http://www.bohemiancoding.com/sketch -->
    <title>title-mobile</title>
    <desc>Created with Sketch.</desc>
    <defs></defs>
    <g id="Page-1" stroke="none" stroke-width="1" fill="none" fill-rule="evenodd" sketch:type="MSPage">
        <g id="title-mobile" sketch:type="MSArtboardGroup" transform="translate(-231.000000, -105.000000)">
            <g id="Name" sketch:type="MSLayerGroup" transform="translate(231.000000, 105.000000)">
                <g id="Kevin" transform="translate(108.000000, 0.000000)" sketch:type="MSShapeGroup">
                    <path d="M6.53864163,18.655 L8.65564163,18.655 C9.39031197,18.655 9.97513946,18.5631676 10.4101416,18.3795 C10.8451438,18.1958324 11.255973,17.8816689 11.6426416,17.437 L25.4756416,1.777 C25.9009771,1.29366425 26.3118063,0.950501015 26.7081416,0.7475 C27.1044769,0.544498985 27.6119719,0.443 28.2306416,0.443 L33.0156416,0.443 L17.1816416,18.336 C16.7756396,18.7806689 16.3938101,19.1576651 16.0361416,19.467 C15.6784732,19.7763349 15.2966437,20.0276657 14.8906416,20.221 C15.4319777,20.3950009 15.9056396,20.6559983 16.3116416,21.004 C16.7176437,21.3520017 17.1429727,21.7869974 17.5876416,22.309 L34.1176416,42 L29.2456416,42 C28.8783065,42 28.5689762,41.9710003 28.3176416,41.913 C28.066307,41.8549997 27.8488092,41.7776671 27.6651416,41.681 C27.481474,41.5843328 27.3123091,41.4586674 27.1576416,41.304 C27.0029742,41.1493326 26.8483091,40.9850009 26.6936416,40.811 L12.3386416,24.31 C12.1259739,24.0779988 11.9278092,23.8798342 11.7441416,23.7155 C11.560474,23.5511658 11.3478095,23.4110006 11.1061416,23.295 C10.8644738,23.1789994 10.5841432,23.0968336 10.2651416,23.0485 C9.94614004,23.0001664 9.55464395,22.976 9.09064163,22.976 L6.53864163,22.976 L6.53864163,42 L0.941641632,42 L0.941641632,0.443 L6.53864163,0.443 L6.53864163,18.655 Z M102.12837,0.443 L102.12837,5.025 L82.1763695,5.025 L82.1763695,18.829 L98.3293695,18.829 L98.3293695,23.237 L82.1763695,23.237 L82.1763695,37.418 L102.12837,37.418 L102.12837,42 L76.5213695,42 L76.5213695,0.443 L102.12837,0.443 Z M230.493394,42 L224.867394,42 L224.867394,0.443 L230.493394,0.443 L230.493394,42 Z M282.03169,0.443 C282.53436,0.443 282.906522,0.505832705 283.14819,0.6315 C283.389858,0.757167295 283.665355,1.0133314 283.97469,1.4 L308.04469,32.72 C307.98669,32.2173308 307.948024,31.729169 307.92869,31.2555 C307.909357,30.781831 307.89969,30.3226689 307.89969,29.878 L307.89969,0.443 L312.82969,0.443 L312.82969,42 L309.98769,42 C309.543021,42 309.170859,41.9226674 308.87119,41.768 C308.571522,41.6133326 308.276692,41.3523352 307.98669,40.985 L283.94569,9.694 C283.984357,10.1773357 284.013357,10.6509977 284.03269,11.115 C284.052024,11.5790023 284.06169,12.0043314 284.06169,12.391 L284.06169,42 L279.13169,42 L279.13169,0.443 L282.03169,0.443 Z" id="KEVIN" fill="#4A4A4A"></path>
                    <polygon id="'V'" stroke="#4A4A4A" stroke-width="5.4" stroke-linejoin="bevel" transform="translate(161.554988, 22.099671) scale(1, -1) translate(-161.554988, -22.099671) " points="161.554988 3.3999939 176.809988 40.799349 146.299988 40.799349 "></polygon>
                </g>
                <g id="Beaulieu" transform="translate(0.000000, 73.000000)" sketch:type="MSShapeGroup">
                    <path d="M511.543358,37.534 C513.264034,37.534 514.801018,37.2440029 516.154358,36.664 C517.507698,36.0839971 518.653187,35.2720052 519.590858,34.228 C520.52853,33.1839948 521.243856,31.9370072 521.736858,30.487 C522.229861,29.0369927 522.476358,27.4420087 522.476358,25.702 L522.476358,0.443 L528.073358,0.443 L528.073358,25.702 C528.073358,28.0993453 527.691529,30.3226564 526.927858,32.372 C526.164188,34.4213436 525.071865,36.1951592 523.650858,37.6935 C522.229851,39.1918408 520.494702,40.3663291 518.445358,41.217 C516.396015,42.0676709 514.095371,42.493 511.543358,42.493 C508.991346,42.493 506.690702,42.0676709 504.641358,41.217 C502.592015,40.3663291 500.852032,39.1918408 499.421358,37.6935 C497.990685,36.1951592 496.893529,34.4213436 496.129858,32.372 C495.366188,30.3226564 494.984358,28.0993453 494.984358,25.702 L494.984358,0.443 L500.581358,0.443 L500.581358,25.673 C500.581358,27.4130087 500.827856,29.0079927 501.320858,30.458 C501.813861,31.9080072 502.529187,33.1549948 503.466858,34.199 C504.40453,35.2430052 505.554852,36.0598304 506.917858,36.6495 C508.280865,37.2391696 509.822683,37.534 511.543358,37.534 Z M449.797062,0.443 L449.797062,5.025 L429.845062,5.025 L429.845062,18.829 L445.998062,18.829 L445.998062,23.237 L429.845062,23.237 L429.845062,37.418 L449.797062,37.418 L449.797062,42 L424.190062,42 L424.190062,0.443 L449.797062,0.443 Z M375.551765,42 L369.925765,42 L369.925765,0.443 L375.551765,0.443 L375.551765,42 Z M307.193469,37.273 L325.173469,37.273 L325.173469,42 L301.567469,42 L301.567469,0.443 L307.193469,0.443 L307.193469,37.273 Z M237.878173,37.534 C239.598848,37.534 241.135832,37.2440029 242.489173,36.664 C243.842513,36.0839971 244.988001,35.2720052 245.925673,34.228 C246.863344,33.1839948 247.57867,31.9370072 248.071673,30.487 C248.564675,29.0369927 248.811173,27.4420087 248.811173,25.702 L248.811173,0.443 L254.408173,0.443 L254.408173,25.702 C254.408173,28.0993453 254.026343,30.3226564 253.262673,32.372 C252.499002,34.4213436 251.40668,36.1951592 249.985673,37.6935 C248.564665,39.1918408 246.829516,40.3663291 244.780173,41.217 C242.730829,42.0676709 240.430185,42.493 237.878173,42.493 C235.32616,42.493 233.025516,42.0676709 230.976173,41.217 C228.926829,40.3663291 227.186846,39.1918408 225.756173,37.6935 C224.325499,36.1951592 223.228343,34.4213436 222.464673,32.372 C221.701002,30.3226564 221.319173,28.0993453 221.319173,25.702 L221.319173,0.443 L226.916173,0.443 L226.916173,25.673 C226.916173,27.4130087 227.16267,29.0079927 227.655673,30.458 C228.148675,31.9080072 228.864001,33.1549948 229.801673,34.199 C230.739344,35.2430052 231.889666,36.0598304 233.252673,36.6495 C234.615679,37.2391696 236.157497,37.534 237.878173,37.534 Z M100.81358,0.443 L100.81358,5.025 L80.8615797,5.025 L80.8615797,18.829 L97.0145797,18.829 L97.0145797,23.237 L80.8615797,23.237 L80.8615797,37.418 L100.81358,37.418 L100.81358,42 L75.2065797,42 L75.2065797,0.443 L100.81358,0.443 Z M0.178283234,42 L0.178283234,0.443 L13.4312832,0.443 C15.983296,0.443 18.1824407,0.69433082 20.0287832,1.197 C21.8751258,1.69966918 23.3927773,2.41499536 24.5817832,3.343 C25.7707892,4.27100464 26.650447,5.40682661 27.2207832,6.7505 C27.7911194,8.09417338 28.0762832,9.60699159 28.0762832,11.289 C28.0762832,12.3136718 27.9167848,13.2996619 27.5977832,14.247 C27.2787816,15.1943381 26.7954531,16.0739959 26.1477832,16.886 C25.5001133,17.6980041 24.6881214,18.4229968 23.7117832,19.061 C22.735445,19.6990032 21.5899565,20.220998 20.2752832,20.627 C23.3106317,21.2263363 25.6016088,22.3186587 27.1482832,23.904 C28.6949576,25.4893413 29.4682832,27.5773204 29.4682832,30.168 C29.4682832,31.9273421 29.1444531,33.5319927 28.4967832,34.982 C27.8491133,36.4320072 26.9017895,37.6789948 25.6547832,38.723 C24.407777,39.7670052 22.8804589,40.5741638 21.0727832,41.1445 C19.2651075,41.7148362 17.2012948,42 14.8812832,42 L0.178283234,42 Z M5.80428323,19.061 L13.2282832,19.061 C14.8136245,19.061 16.1862774,18.8870017 17.3462832,18.539 C18.506289,18.1909983 19.4681127,17.7076698 20.2317832,17.089 C20.9954537,16.4703302 21.5609481,15.7211711 21.9282832,14.8415 C22.2956184,13.9618289 22.4792832,13.0000052 22.4792832,11.956 C22.4792832,9.51998782 21.7446239,7.73167237 20.2752832,6.591 C18.8059426,5.45032763 16.524632,4.88 13.4312832,4.88 L5.80428323,4.88 L5.80428323,19.061 Z M5.80428323,23.063 L5.80428323,37.534 L14.7942832,37.534 C16.3989579,37.534 17.7764441,37.3503352 18.9267832,36.983 C20.0771223,36.6156648 21.0244462,36.0985033 21.7687832,35.4315 C22.5131203,34.7644967 23.0592815,33.9718379 23.4072832,33.0535 C23.755285,32.1351621 23.9292832,31.1250055 23.9292832,30.023 C23.9292832,27.8769893 23.1704575,26.1805062 21.6527832,24.9335 C20.135109,23.6864938 17.8392986,23.063 14.7652832,23.063 L5.80428323,23.063 Z" id="BEAULIEU" fill="#4A4A4A"></path>
                    <polygon id="'A'" stroke="#4A4A4A" stroke-width="5.4" stroke-linejoin="bevel" points="161.15 1.3999939 176.799999 39.3999939 145.5 39.3999939 "></polygon>
                </g>
            </g>
        </g>
    </g>
</svg>